Coordinates
nRows=110
nColumns=2
inDegrees=yes
endheader
time	ankle_angle_r	
3.72177	  9.586279	
3.79335	  9.571165	
3.86492	  9.561173	
3.93649	  9.540363	
4.00806	  9.560939	
4.07964	  9.579533	
4.15121	  9.558775	
4.22278	  9.545669	
4.29435	  9.569351	
4.36593	  9.586332	
4.4375	  9.532330	
4.50907	  9.514798	
4.58065	  9.567343	
4.65222	  9.564615	
4.72379	  9.528963	
4.79536	  9.563313	
4.86694	  9.611254	
4.93851	  9.561768	
5.01008	  9.525269	
5.08165	  9.580723	
5.15323	  9.598967	
5.2248	  9.556185	
5.29637	  9.574117	
5.36794	  9.642647	
5.43952	  9.643458	
5.51109	  9.615316	
5.58266	  9.615926	
5.65423	  9.638168	
5.72581	  9.655130	
5.79738	  9.609658	
5.86895	  9.591107	
5.94052	  9.625751	
6.0121	  9.597976	
6.08367	  9.556993	
6.15524	  9.572553	
6.22681	  9.574398	
6.29839	  9.533094	
6.36996	  9.528416	
6.44153	  9.571651	
6.5131	  9.575761	
6.58468	  9.541431	
6.65625	  9.555600	
6.72782	  9.612510	
6.7994	  9.650261	
6.87097	  9.675344	
6.94254	  9.690119	
7.01411	  9.700836	
7.08569	  9.684566	
7.15726	  9.661633	
7.22883	  9.701002	
7.3004	  9.700769	
7.37198	  9.652806	
7.44355	  9.653241	
7.51512	  9.685381	
7.58669	  9.669841	
7.65827	  9.583043	
7.72984	  9.597635	
7.80141	  9.663099	
7.87298	  9.627266	
7.94456	  9.615396	
8.01613	  9.644922	
8.0877	  9.632964	
8.15927	  9.599375	
8.23085	  9.630897	
8.30242	  9.676546	
8.37399	  9.637663	
8.44556	  9.613094	
8.51714	  9.642205	
8.58871	  9.640949	
8.66028	  9.586614	
8.73185	  9.567806	
8.80343	  9.597894	
8.875	  9.589365	
8.94657	  9.558904	
9.01815	  9.555370	
9.08972	  9.586479	
9.16129	  9.593790	
9.23286	  9.547415	
9.30444	  9.538525	
9.37601	  9.572109	
9.44758	  9.553353	
9.51915	  9.525687	
9.59073	  9.575049	
9.6623	  9.599860	
9.73387	  9.548123	
9.80544	  9.531297	
9.87702	  9.572478	
9.94859	  9.573295	
10.0202	  9.519372	
10.0917	  9.544943	
10.1633	  9.604994	
10.2349	  9.589614	
10.3065	  9.610792	
10.378	  9.666006	
10.4496	  9.647240	
10.5212	  9.589882	
10.5927	  9.569007	
10.6643	  9.588358	
10.7359	  9.592209	
10.8075	  9.552725	
10.879	  9.537853	
10.9506	  9.586958	
11.0222	  9.592442	
11.0937	  9.547826	
11.1653	  9.549895	
11.2369	  9.564354	
11.3085	  9.560519	
11.38	  9.554022	
11.4516	  9.557152	
11.5232	  9.595416	
